{
  "accessors": [
    {
      "bufferView": 2,
      "componentType": 5126,
      "count": 1288,
      "max": [
        2.5148100852966309,
        2.5148100852966309,
        4.3924498558044434
      ],
      "min": [
        -2.5148100852966309,
        -2.5148100852966309,
        -6.192039966583252
      ],
      "type": "VEC3"
    },
    {
      "bufferView": 2,
      "byteOffset": 15456,
      "componentType": 5126,
      "count": 1288,
      "max": [
        1,
        1,
        0.78406143188476562
      ],
      "min": [
        -1,
        -1,
        -1
      ],
      "type": "VEC3"
    },
    {
      "bufferView": 3,
      "componentType": 5126,
      "count": 1288,
      "max": [
        0.99998068809509277,
        0.99997210502624512,
        0.99854928255081177,
        1
      ],
      "min": [
        -0.99553585052490234,
        -0.99994248151779175,
        -0.99334502220153809,
        -1
      ],
      "type": "VEC4"
    },
    {
      "bufferView": 1,
      "componentType": 5126,
      "count": 1288,
      "max": [
        0.995930016040802,
        0.98141002655029297
      ],
      "min": [
        0.0089400000870227814,
        0.00013000000035390258
      ],
      "type": "VEC2"
    },
    {
      "bufferView": 0,
      "componentType": 5125,
      "count": 2058,
      "max": [
        1287
      ],
      "min": [
        0
      ],
      "type": "SCALAR"
    }
  ],
  "asset": {
    "extras": {
      "author": "jpgrandi (https://sketchfab.com/jpgrandi)",
      "license": "CC-BY-4.0 (http://creativecommons.org/licenses/by/4.0/)",
      "source": "https://sketchfab.com/models/be1d93da1bf74d568f01f626a652ed2b",
      "title": "Simple Rocket / Missile"
    },
    "generator": "Sketchfab-4.1.6",
    "version": "2.0"
  },
  "bufferViews": [
    {
      "buffer": 0,
      "byteLength": 8232,
      "byteOffset": 0,
      "name": "floatBufferViews",
      "target": 34963
    },
    {
      "buffer": 0,
      "byteLength": 10304,
      "byteOffset": 8232,
      "byteStride": 8,
      "name": "floatBufferViews",
      "target": 34962
    },
    {
      "buffer": 0,
      "byteLength": 30912,
      "byteOffset": 18536,
      "byteStride": 12,
      "name": "floatBufferViews",
      "target": 34962
    },
    {
      "buffer": 0,
      "byteLength": 20608,
      "byteOffset": 49448,
      "byteStride": 16,
      "name": "floatBufferViews",
      "target": 34962
    }
  ],
  "buffers": [
    {
      "byteLength": 70056,
      "uri": "scene.bin"
    }
  ],
  "materials": [
    {
      "doubleSided": true,
      "emissiveFactor": [
        0,
        0,
        0
      ],
      "name": "Material",
      "pbrMetallicRoughness": {
        "baseColorFactor": [
          0.21512957320000001,
          0.21512957320000001,
          0.21512957320000001,
          1
        ],
        "metallicFactor": 1,
        "roughnessFactor": 0.24828506100000003
      }
    }
  ],
  "meshes": [
    {
      "name": "Cylinder_0",
      "primitives": [
        {
          "attributes": {
            "NORMAL": 1,
            "POSITION": 0,
            "TANGENT": 2,
            "TEXCOORD_0": 3
          },
          "indices": 4,
          "material": 0,
          "mode": 4
        }
      ]
    }
  ],
  "nodes": [
    {
      "children": [
        1
      ],
      "name": "RootNode (gltf orientation matrix)",
      "rotation": [
        -0.70710678118654746,
        -0,
        -0,
        0.70710678118654757
      ]
    },
    {
      "children": [
        2
      ],
      "name": "RootNode (model correction matrix)"
    },
    {
      "children": [
        3,
        5,
        7
      ],
      "name": "Root"
    },
    {
      "children": [
        4
      ],
      "matrix": [
        0.79542999999999997,
        0,
        0,
        0,
        0,
        0.79542999999999997,
        0,
        0,
        0,
        0,
        1,
        0,
        0,
        0,
        6.2111700000000001,
        1
      ],
      "name": "Cylinder"
    },
    {
      "mesh": 0,
      "name": "Cylinder_0"
    },
    {
      "children": [
        6
      ],
      "matrix": [
        0.68405000000000016,
        0.17799000000000004,
        0.70739000000000007,
        0,
        -0.12598000000000001,
        0.98402999999999996,
        -0.12576999999999999,
        0,
        -0.71848000000000001,
        -0.0030900000000000012,
        0.69554000000000016,
        0,
        -8.4247399999999999,
        0,
        13.76118,
        1
      ],
      "name": "Spot"
    },
    {
      "name": "Spot"
    },
    {
      "children": [
        8
      ],
      "matrix": [
        0.49172000000000005,
        0.49351000000000006,
        -0.71740000000000004,
        0,
        0.0040900000000000008,
        0.82255999999999996,
        0.56866000000000005,
        0,
        0.87074000000000018,
        -0.28256000000000003,
        0.40245000000000003,
        0,
        12.414619999999999,
        -6.6052299999999997,
        11.017389999999999,
        1
      ],
      "name": "Spot.001"
    },
    {
      "name": "Spot.001"
    }
  ],
  "scene": 0,
  "scenes": [
    {
      "name": "OSG_Scene",
      "nodes": [
        0
      ]
    }
  ]
}

